<svg width="723" height="445" viewBox="0 0 723 445" fill="none" xmlns="http://www.w3.org/2000/svg">
<path fill-rule="evenodd" clip-rule="evenodd" d="M517.283 361.806V442.495H539.662V361.806H517.283ZM519.962 348.095C522.344 350.301 525.198 351.404 528.525 351.404C531.852 351.404 534.689 350.301 537.035 348.095C539.417 345.853 540.607 343.174 540.607 340.057C540.607 336.975 539.417 334.331 537.035 332.125C534.689 329.884 531.852 328.763 528.525 328.763C525.198 328.763 522.344 329.884 519.962 332.125C517.616 334.331 516.443 336.975 516.443 340.057C516.443 343.174 517.616 345.853 519.962 348.095ZM1.39291 334.909V442.495H47.3584C55.4133 442.495 62.1899 441.199 67.6883 438.607C73.1866 436.016 77.3366 432.496 80.1383 428.048C82.9751 423.566 84.3934 418.47 84.3934 412.762C84.3934 407.473 83.2728 402.921 81.0314 399.103C78.79 395.251 75.8657 392.257 72.2586 390.12C68.6864 387.984 64.8515 386.828 60.754 386.653V385.603C64.5013 384.762 67.8284 383.344 70.7351 381.347C73.6769 379.316 75.9883 376.725 77.6693 373.573C79.3504 370.386 80.1909 366.691 80.1909 362.488C80.1909 357.095 78.8601 352.332 76.1984 348.2C73.5368 344.032 69.5619 340.775 64.2737 338.429C58.9855 336.082 52.384 334.909 44.4691 334.909H1.39291ZM42.683 423.898H24.1393V395.321H43.2084C46.8506 395.321 49.985 395.969 52.6116 397.265C55.2732 398.56 57.322 400.347 58.7578 402.623C60.1937 404.899 60.9116 407.526 60.9116 410.503C60.9116 414.565 59.4583 417.822 56.5515 420.274C53.6447 422.69 49.0219 423.898 42.683 423.898ZM41.002 379.929H24.1393V353.295H41.4223C46.4654 353.295 50.3527 354.486 53.0844 356.868C55.8511 359.249 57.2344 362.383 57.2344 366.271C57.2344 369.108 56.5165 371.541 55.0806 373.573C53.6797 375.604 51.7536 377.18 49.3021 378.301C46.8856 379.386 44.1189 379.929 41.002 379.929ZM108.02 441.339C112.047 443.125 116.635 444.018 121.783 444.018C125.775 444.018 129.295 443.493 132.342 442.442C135.389 441.356 137.998 439.868 140.169 437.977C142.341 436.051 144.074 433.827 145.37 431.305H146V442.495H167.223V388.072C167.223 383.274 166.295 379.159 164.439 375.727C162.583 372.259 160.044 369.423 156.822 367.216C153.635 365.01 149.975 363.382 145.843 362.331C141.745 361.28 137.455 360.755 132.972 360.755C126.528 360.755 120.855 361.736 115.952 363.697C111.084 365.623 107.109 368.39 104.027 371.997C100.945 375.569 98.8791 379.807 97.8285 384.71L118.526 386.391C119.297 383.729 120.873 381.523 123.254 379.771C125.635 377.985 128.84 377.092 132.867 377.092C136.685 377.092 139.626 378.003 141.693 379.824C143.794 381.645 144.845 384.219 144.845 387.546V387.861C144.845 389.577 144.197 390.873 142.901 391.749C141.605 392.624 139.521 393.29 136.65 393.745C133.778 394.165 129.996 394.621 125.303 395.111C121.31 395.496 117.493 396.161 113.851 397.107C110.244 398.053 107.022 399.453 104.185 401.31C101.348 403.166 99.1068 405.617 97.4608 408.664C95.8148 411.711 94.9918 415.476 94.9918 419.958C94.9918 425.282 96.1475 429.729 98.4589 433.302C100.805 436.839 103.992 439.518 108.02 441.339ZM136.912 426.63C134.391 427.926 131.484 428.574 128.192 428.574C124.76 428.574 121.923 427.786 119.682 426.21C117.475 424.599 116.372 422.27 116.372 419.223C116.372 417.122 116.915 415.371 118.001 413.97C119.086 412.534 120.61 411.396 122.571 410.555C124.532 409.715 126.826 409.102 129.453 408.717C130.678 408.542 132.044 408.349 133.55 408.139C135.056 407.894 136.562 407.631 138.068 407.351C139.574 407.036 140.922 406.703 142.113 406.353C143.339 405.967 144.302 405.547 145.002 405.092V413.655C145.002 416.491 144.284 419.03 142.848 421.272C141.413 423.513 139.434 425.299 136.912 426.63ZM206.964 334.909V442.495H184.585V334.909H206.964ZM247.269 442.495V334.909H224.89V442.495H247.269ZM355.603 334.909V442.495H335.956L289.15 374.781H288.362V442.495H265.616V334.909H285.578L332.016 402.57H332.962V334.909H355.603ZM383.222 441.339C387.249 443.125 391.837 444.018 396.985 444.018C400.977 444.018 404.497 443.493 407.544 442.442C410.591 441.356 413.2 439.868 415.371 437.977C417.542 436.051 419.276 433.827 420.572 431.305H421.202V442.495H442.425V388.072C442.425 383.274 441.497 379.159 439.641 375.727C437.785 372.259 435.246 369.423 432.024 367.216C428.837 365.01 425.177 363.382 421.045 362.331C416.947 361.28 412.657 360.755 408.174 360.755C401.73 360.755 396.057 361.736 391.154 363.697C386.286 365.623 382.311 368.39 379.229 371.997C376.147 375.569 374.081 379.807 373.03 384.71L393.728 386.391C394.498 383.729 396.074 381.523 398.456 379.771C400.837 377.985 404.042 377.092 408.069 377.092C411.887 377.092 414.828 378.003 416.895 379.824C418.996 381.645 420.046 384.219 420.046 387.546V387.861C420.046 389.577 419.399 390.873 418.103 391.749C416.807 392.624 414.723 393.29 411.852 393.745C408.98 394.165 405.197 394.621 400.505 395.111C396.512 395.496 392.695 396.161 389.053 397.107C385.445 398.053 382.223 399.453 379.387 401.31C376.55 403.166 374.309 405.617 372.663 408.664C371.017 411.711 370.194 415.476 370.194 419.958C370.194 425.282 371.349 429.729 373.661 433.302C376.007 436.839 379.194 439.518 383.222 441.339ZM412.114 426.63C409.593 427.926 406.686 428.574 403.394 428.574C399.962 428.574 397.125 427.786 394.884 426.21C392.677 424.599 391.574 422.27 391.574 419.223C391.574 417.122 392.117 415.371 393.203 413.97C394.288 412.534 395.812 411.396 397.773 410.555C399.734 409.715 402.028 409.102 404.655 408.717C405.88 408.542 407.246 408.349 408.752 408.139C410.258 407.894 411.764 407.631 413.27 407.351C414.776 407.036 416.124 406.703 417.315 406.353C418.541 405.967 419.504 405.547 420.204 405.092V413.655C420.204 416.491 419.486 419.03 418.05 421.272C416.614 423.513 414.636 425.299 412.114 426.63ZM502.706 361.806V378.616H487.524V417.7C487.524 419.766 487.839 421.377 488.469 422.533C489.1 423.653 489.975 424.441 491.096 424.896C492.252 425.352 493.582 425.579 495.088 425.579C496.139 425.579 497.19 425.492 498.24 425.317C499.291 425.107 500.096 424.949 500.657 424.844L504.176 441.497C503.056 441.847 501.48 442.25 499.449 442.705C497.417 443.195 494.948 443.493 492.042 443.598C486.648 443.808 481.92 443.09 477.858 441.444C473.83 439.798 470.696 437.241 468.455 433.774C466.213 430.307 465.11 425.93 465.145 420.641V378.616H454.113V361.806H465.145V342.474H487.524V361.806H502.706ZM594.046 444.071C585.886 444.071 578.829 442.337 572.875 438.87C566.957 435.368 562.386 430.5 559.164 424.266C555.942 417.997 554.331 410.73 554.331 402.465C554.331 394.13 555.942 386.846 559.164 380.612C562.386 374.343 566.957 369.475 572.875 366.008C578.829 362.506 585.886 360.755 594.046 360.755C602.205 360.755 609.245 362.506 615.163 366.008C621.117 369.475 625.705 374.343 628.927 380.612C630.233 383.139 631.274 385.839 632.051 388.711L606.136 377.909C602.694 376.339 598.868 375.464 594.837 375.464C579.785 375.464 567.582 387.667 567.582 402.719C567.582 416.891 578.399 428.537 592.227 429.851L592.237 429.878L620.475 435.074C618.846 436.48 617.075 437.746 615.163 438.87C609.245 442.337 602.205 444.071 594.046 444.071ZM648.311 440.196V442.495H660.802L648.311 440.196ZM669.104 442.495L648.311 436.923V432.323L670.69 438.319V442.495H669.104ZM702.89 442.495L700.318 441.805V437.205L720.059 442.495H702.89ZM722.696 434.341V438.941L700.318 432.945V428.345L722.696 434.341ZM722.696 430.659V391.118C722.696 384.85 721.541 379.456 719.229 374.939C716.918 370.386 713.678 366.884 709.511 364.432C705.343 361.981 700.458 360.755 694.854 360.755C688.866 360.755 683.77 362.138 679.568 364.905C675.365 367.637 672.371 371.349 670.585 376.042H669.639V361.806H648.311V395.489L666.719 403.162L648.311 398.23V402.83L670.69 408.826V395.846C670.725 392.379 671.373 389.42 672.633 386.968C673.929 384.482 675.715 382.591 677.992 381.295C680.303 379.999 682.965 379.351 685.976 379.351C690.459 379.351 693.979 380.752 696.535 383.554C699.092 386.32 700.353 390.173 700.318 395.111V417.167L719.761 425.272L700.318 420.062V424.663L722.696 430.659ZM670.69 416.724V412.123L648.311 406.127V410.727L670.69 416.724ZM633.606 406.787C633.709 405.378 633.76 403.938 633.76 402.465C633.76 402.386 633.76 402.307 633.759 402.228L621.846 399.036C622.009 400.24 622.093 401.47 622.093 402.719C622.093 403.047 622.087 403.373 622.076 403.698L633.606 406.787ZM633.658 398.904C633.564 397.285 633.404 395.708 633.179 394.175L619.167 390.42C619.989 392.043 620.653 393.76 621.14 395.55L633.658 398.904ZM633.227 410.368C633.016 411.867 632.742 413.327 632.406 414.748L620.617 411.589C621.095 410.201 621.463 408.762 621.713 407.282L633.227 410.368ZM648.311 419.01V414.409L670.69 420.406V425.006L648.311 419.01ZM631.275 418.705L618.966 415.407C618.237 416.79 617.393 418.103 616.446 419.332L629.614 422.861C630.238 421.519 630.792 420.134 631.275 418.705ZM648.311 427.87V423.27L670.69 429.266V433.867L648.311 427.87ZM627.525 426.753L613.154 422.903C611.749 424.178 610.21 425.31 608.561 426.272L624.792 430.621C625.777 429.406 626.688 428.116 627.525 426.753Z" fill="#006E39"/>
<path fill-rule="evenodd" clip-rule="evenodd" d="M0 107.266V108.604V268.848C0 292.466 19.1457 311.611 42.7631 311.611H639.082L181.59 189.027C175.991 194.11 169.86 198.618 163.289 202.455L477.046 286.526L98.242 216.823L98.2027 216.715C43.1018 211.48 0 165.075 0 108.604C0 108.157 0.00269454 107.711 0.00806824 107.266H0ZM108.659 1.38691e-05C124.692 0.00802967 139.913 3.49038 153.609 9.735L395.026 110.366L205.547 59.5957C208.823 66.0632 211.471 72.9028 213.41 80.0342L518.149 161.689L606.381 198.467L216.223 93.9246C216.872 98.7251 217.207 103.625 217.207 108.604C217.207 109.908 217.184 111.208 217.138 112.501L723 248.047V42.7631C723 19.1457 703.854 0 680.237 0L108.659 1.38691e-05ZM215.692 126.785L723 262.718V268.848C723 272.928 722.429 276.874 721.362 280.611L211.326 143.947C213.229 138.415 214.698 132.681 215.692 126.785ZM204.748 159.159L713.663 295.522C708.881 301.507 702.525 306.18 695.222 308.912L194.708 174.8C198.48 169.9 201.844 164.669 204.748 159.159Z" fill="#006E39"/>
</svg>
